<svg width="211" height="60" viewBox="0 0 211 60" fill="none" xmlns="http://www.w3.org/2000/svg">
<path d="M197 8L193 14L189 8M200.906 46H185.094C180.072 46 176 41.928 176 36.906V23.094C176 18.072 180.072 14 185.094 14H200.904C205.928 14 210 18.072 210 23.094V36.904C210 41.928 205.928 46 200.906 46Z" stroke="white" stroke-width="2" stroke-linecap="round" stroke-linejoin="round"/>
<path d="M188 25V35M183 25H193L198 35L203 25" stroke="#FF9933" stroke-width="2" stroke-linecap="round" stroke-linejoin="round"/>
<path d="M39.0238 18.2822C39.0238 17.1008 39.3488 16.2461 39.9988 15.7184C40.6487 15.1911 41.5629 14.927 42.7407 14.927C43.4723 14.927 44.1421 15.022 44.7515 15.2122C45.3604 15.4018 45.7666 15.539 45.9703 15.6238V32.2723C45.9703 35.1419 46.6198 37.326 47.9203 38.8241C49.2198 40.3221 51.2108 41.0714 53.8914 41.0714C56.5725 41.0714 58.563 40.3221 59.863 38.8241C61.1625 37.326 61.8129 35.1424 61.8129 32.2723V18.2822C61.8129 17.1008 62.1379 16.2461 62.7879 15.7184C63.4374 15.1911 64.3318 14.927 65.469 14.927C66.2412 14.927 66.9317 15.022 67.5407 15.2122C68.1501 15.4018 68.5562 15.539 68.7595 15.6238V33.8546C68.7595 36.0068 68.4038 37.9376 67.6935 39.6468C66.9826 41.3561 65.9671 42.8012 64.6468 43.9827C63.3266 45.1646 61.7526 46.0609 59.9248 46.673C58.0965 47.285 56.0862 47.5908 53.8923 47.5908C51.699 47.5908 49.6882 47.285 47.8604 46.673C46.0321 46.0609 44.4685 45.1641 43.1685 43.9827C41.869 42.8012 40.853 41.3561 40.1219 39.6468C39.3907 37.9376 39.0247 36.0068 39.0247 33.8546L39.0238 18.2822ZM79.9772 52.1491C80.1399 52.2339 80.4951 52.3917 81.0437 52.624C81.5918 52.8562 82.2824 53.0885 83.1149 53.3203C83.9479 53.5521 84.9224 53.7525 86.0398 53.9216C87.1568 54.0906 88.3657 54.1749 89.6657 54.1749C91.0468 54.1749 92.4076 54.0166 93.7482 53.7001C95.0882 53.3835 96.2868 52.8136 97.3429 51.9908C98.399 51.1681 99.2622 50.0179 99.9325 48.541C100.603 47.0635 100.938 45.1646 100.938 42.8438V42.0843C100.004 43.2236 98.6528 44.2997 96.8858 45.3126C95.1189 46.3255 92.9963 46.8322 90.5185 46.8322C88.2436 46.8322 86.1521 46.4417 84.2427 45.661C82.3333 44.8804 80.6885 43.7832 79.3074 42.3695C77.9263 40.9557 76.8499 39.2573 76.0782 37.2736C75.3061 35.2899 74.9202 33.0955 74.9202 30.69C74.9202 28.2844 75.3367 26.0689 76.1693 24.0436C77.0023 22.0178 78.1499 20.2664 79.6121 18.7894C81.0744 17.3125 82.8314 16.1521 84.8828 15.3077C86.9341 14.4639 89.1784 14.0415 91.6157 14.0415C93.9312 14.0415 96.0736 14.4002 98.0438 15.1176C100.014 15.835 101.73 16.9322 103.193 18.4092C104.655 19.8861 105.793 21.7639 106.605 24.0431C107.418 26.3223 107.824 29.0018 107.824 32.0826V41.1983C107.824 44.532 107.387 47.3914 106.514 49.7759C105.64 52.1604 104.432 54.1122 102.888 55.6313C101.345 57.1509 99.5065 58.2584 97.374 58.9547C95.2415 59.6511 92.9156 59.9995 90.3973 59.9995C88.7318 59.9995 87.2186 59.9044 85.8577 59.7148C84.4969 59.5246 83.2885 59.2924 82.2323 59.0184C81.1762 58.744 80.3027 58.4696 79.6121 58.1957C78.9216 57.9212 78.414 57.6997 78.089 57.5312L79.9772 52.1491ZM91.5543 40.7548C92.9354 40.7548 94.1948 40.5019 95.3321 39.9952C96.4693 39.4885 97.4443 38.7927 98.257 37.9062C99.0693 37.0197 99.7094 35.9647 100.176 34.7411C100.643 33.517 100.877 32.1669 100.877 30.6895C100.877 29.2546 100.643 27.9149 100.176 26.6702C99.7094 25.425 99.0693 24.3489 98.257 23.4418C97.4443 22.5348 96.4693 21.8277 95.3321 21.3214C94.1944 20.8152 92.9354 20.5619 91.5543 20.5619C90.1327 20.5619 88.8431 20.8255 87.6851 21.3533C86.5275 21.8811 85.5422 22.6088 84.7299 23.5374C83.9172 24.466 83.288 25.5421 82.8408 26.7657C82.3941 27.9894 82.1706 29.2978 82.1706 30.6904C82.1706 33.7292 83.0238 36.1661 84.7299 38.0018C86.4356 39.8375 88.711 40.7548 91.5543 40.7548ZM114.777 18.2822C114.777 17.1008 115.102 16.2461 115.751 15.7184C116.401 15.1911 117.315 14.927 118.493 14.927C119.224 14.927 119.894 15.022 120.504 15.2122C121.113 15.4018 121.519 15.539 121.723 15.6238V46.7048H114.777V18.2822ZM118.25 0.68457C119.428 0.68457 120.423 1.10649 121.235 1.95082C122.048 2.79466 122.454 3.82864 122.454 5.05226C122.454 6.27637 122.048 7.30985 121.235 8.15419C120.423 8.99852 119.428 9.42044 118.25 9.42044C117.071 9.42044 116.076 8.99852 115.264 8.15419C114.452 7.30985 114.045 6.27637 114.045 5.05226C114.045 3.82864 114.452 2.79466 115.264 1.95082C116.076 1.10649 117.071 0.68457 118.25 0.68457ZM129.407 27.5243C129.407 25.4142 129.783 23.5256 130.535 21.8585C131.286 20.1914 132.322 18.7777 133.642 17.6173C134.962 16.4569 136.527 15.5704 138.334 14.9583C140.142 14.3463 142.122 14.0405 144.275 14.0405C146.428 14.0405 148.418 14.3463 150.247 14.9583C152.074 15.5704 153.648 16.4564 154.969 17.6173C156.289 18.7777 157.315 20.1914 158.046 21.8585C158.777 23.5256 159.143 25.4142 159.143 27.5243V46.7048H152.197V29.36C152.197 26.4903 151.526 24.3063 150.186 22.8082C148.845 21.3102 146.875 20.5609 144.275 20.5609C141.634 20.5609 139.654 21.3102 138.334 22.8082C137.014 24.3063 136.354 26.4903 136.354 29.36V46.7048H129.407V27.5243Z" fill="white" fill-opacity="0.2"/>
<path fill-rule="evenodd" clip-rule="evenodd" d="M0 3.35234C0 2.21398 0.324524 1.37063 0.974511 0.82228C1.62403 0.27393 2.53721 0 3.71408 0C4.44472 0 5.11452 0.0950679 5.72347 0.284222C6.33242 0.474356 6.73808 0.611565 6.94137 0.695361V18.8497C7.95598 17.5002 9.35689 16.351 11.1427 15.4023C12.9285 14.4531 14.9785 13.9788 17.2921 13.9788C19.2576 13.9788 21.0887 14.2978 22.7868 14.9348L17.4464 20.4923C17.0794 20.4516 16.703 20.4311 16.3181 20.4311C14.8969 20.4311 13.6087 20.6947 12.4516 21.2215C11.2951 21.7488 10.3106 22.476 9.49887 23.4036C8.68709 24.3313 8.04748 25.428 7.58098 26.6932C7.11448 27.9585 6.88052 29.3076 6.88052 30.7414C6.88052 32.2596 7.11448 33.6513 7.58098 34.916C8.04796 36.1813 8.69747 37.2564 9.52953 38.1419C10.3616 39.0274 11.3559 39.7233 12.513 40.2295C13.6695 40.7357 14.9384 40.9886 16.3185 40.9886C17.6987 40.9886 18.9666 40.7249 20.1237 40.1981C21.1623 39.7248 22.0703 39.0985 22.8472 38.3193L22.8486 38.3179C22.926 38.2404 23.0014 38.1615 23.076 38.0812L32.7102 28.0565C32.8229 28.9229 32.8795 29.8177 32.8795 30.7414C32.8795 33.145 32.4739 35.3801 31.6616 37.4461C30.8499 39.5126 29.7136 41.2836 28.2523 42.7596C26.7905 44.2355 25.0556 45.395 23.0462 46.2388C21.0368 47.0822 18.835 47.5041 16.4402 47.5041C14.0455 47.5041 11.8432 47.1248 9.83377 46.3657C7.82438 45.6062 6.08903 44.4678 4.62821 42.9502C3.16645 41.4316 2.03015 39.5346 1.21837 37.2569C0.406597 34.9797 0.000472149 32.3022 0.000472149 29.2238V3.35234H0Z" fill="white"/>
<path d="M31.8682 21.6642C32.5394 20.9669 32.8323 20.2387 32.7489 19.4792C32.6649 18.7201 32.2758 17.9792 31.5805 17.2569C31.1248 16.7835 30.6456 16.4101 30.1423 16.1361C29.639 15.8622 29.3036 15.6883 29.1357 15.6133L17.6317 27.5643L16.0181 25.8879C15.3478 25.191 14.6454 24.8862 13.9148 24.973C13.1837 25.0602 12.4705 25.465 11.7757 26.1873C11.32 26.6606 10.9606 27.1585 10.6965 27.6814C10.4333 28.2043 10.2649 28.5527 10.1932 28.7271L14.7511 33.4623C16.3374 35.1103 18.9251 35.1103 20.5118 33.4619L21.9099 32.0094L31.8677 21.6642H31.8682Z" fill="#FF9933"/>
</svg>
