<svg width="44" height="386" viewBox="0 0 44 386" fill="none" xmlns="http://www.w3.org/2000/svg">
<rect width="50" height="1" transform="matrix(-0.866025 -0.5 -0.5 0.866025 43.8013 25)" fill="#DEDFE6"/>
<rect width="50" height="1" transform="matrix(-0.866025 -0.5 -0.5 0.866025 43.8013 35)" fill="#DEDFE6"/>
<rect width="50" height="1" transform="matrix(-0.866025 -0.5 -0.5 0.866025 43.8013 45)" fill="#DEDFE6"/>
<rect width="50" height="1" transform="matrix(-0.866025 -0.5 -0.5 0.866025 43.8013 55)" fill="#DEDFE6"/>
<rect width="50" height="1" transform="matrix(-0.866025 -0.5 -0.5 0.866025 43.8013 65)" fill="#DEDFE6"/>
<rect width="50" height="1" transform="matrix(-0.866025 -0.5 -0.5 0.866025 43.8013 75)" fill="#DEDFE6"/>
<rect width="50" height="1" transform="matrix(-0.866025 -0.5 -0.5 0.866025 43.8013 85)" fill="#DEDFE6"/>
<rect width="50" height="1" transform="matrix(-0.866025 -0.5 -0.5 0.866025 43.8013 95)" fill="#DEDFE6"/>
<rect width="50" height="1" transform="matrix(-0.866025 -0.5 -0.5 0.866025 43.8013 105)" fill="#DEDFE6"/>
<rect width="50" height="1" transform="matrix(-0.866025 -0.5 -0.5 0.866025 43.8013 115)" fill="#DEDFE6"/>
<rect width="50" height="1" transform="matrix(-0.866025 -0.5 -0.5 0.866025 43.8013 125)" fill="#DEDFE6"/>
<rect width="50" height="1" transform="matrix(-0.866025 -0.5 -0.5 0.866025 43.8013 135)" fill="#DEDFE6"/>
<rect width="50" height="1" transform="matrix(-0.866025 -0.5 -0.5 0.866025 43.8013 145)" fill="#DEDFE6"/>
<rect width="50" height="1" transform="matrix(-0.866025 -0.5 -0.5 0.866025 43.8013 155)" fill="#DEDFE6"/>
<rect width="50" height="1" transform="matrix(-0.866025 -0.5 -0.5 0.866025 43.8013 165)" fill="#DEDFE6"/>
<rect width="50" height="1" transform="matrix(-0.866025 -0.5 -0.5 0.866025 43.8013 175)" fill="#DEDFE6"/>
<rect width="50" height="1" transform="matrix(-0.866025 -0.5 -0.5 0.866025 43.8013 185)" fill="#DEDFE6"/>
<rect width="50" height="1" transform="matrix(-0.866025 -0.5 -0.5 0.866025 43.8013 195)" fill="#DEDFE6"/>
<rect width="50" height="1" transform="matrix(-0.866025 -0.5 -0.5 0.866025 43.8013 205)" fill="#DEDFE6"/>
<rect width="50" height="1" transform="matrix(-0.866025 -0.5 -0.5 0.866025 43.8013 215)" fill="#DEDFE6"/>
<rect width="50" height="1" transform="matrix(-0.866025 -0.5 -0.5 0.866025 43.8013 225)" fill="#DEDFE6"/>
<rect width="50" height="1" transform="matrix(-0.866025 -0.5 -0.5 0.866025 43.8013 235)" fill="#DEDFE6"/>
<rect width="50" height="1" transform="matrix(-0.866025 -0.5 -0.5 0.866025 43.8013 245)" fill="#DEDFE6"/>
<rect width="50" height="1" transform="matrix(-0.866025 -0.5 -0.5 0.866025 43.8013 255)" fill="#DEDFE6"/>
<rect width="50" height="1" transform="matrix(-0.866025 -0.5 -0.5 0.866025 43.8013 265)" fill="#DEDFE6"/>
<rect width="50" height="1" transform="matrix(-0.866025 -0.5 -0.5 0.866025 43.8013 275)" fill="#DEDFE6"/>
<rect width="50" height="1" transform="matrix(-0.866025 -0.5 -0.5 0.866025 43.8013 285)" fill="#DEDFE6"/>
<rect width="50" height="1" transform="matrix(-0.866025 -0.5 -0.5 0.866025 43.8013 295)" fill="#DEDFE6"/>
<rect width="50" height="1" transform="matrix(-0.866025 -0.5 -0.5 0.866025 43.8013 305)" fill="#DEDFE6"/>
<rect width="50" height="1" transform="matrix(-0.866025 -0.5 -0.5 0.866025 43.8013 315)" fill="#DEDFE6"/>
<rect width="50" height="1" transform="matrix(-0.866025 -0.5 -0.5 0.866025 43.8013 325)" fill="#DEDFE6"/>
<rect width="50" height="1" transform="matrix(-0.866025 -0.5 -0.5 0.866025 43.8013 335)" fill="#DEDFE6"/>
<rect width="50" height="1" transform="matrix(-0.866025 -0.5 -0.5 0.866025 43.8013 345)" fill="#DEDFE6"/>
<rect width="50" height="1" transform="matrix(-0.866025 -0.5 -0.5 0.866025 43.8013 355)" fill="#DEDFE6"/>
<rect width="50" height="1" transform="matrix(-0.866025 -0.5 -0.5 0.866025 43.8013 365)" fill="#DEDFE6"/>
<rect width="50" height="1" transform="matrix(-0.866025 -0.5 -0.5 0.866025 43.8013 375)" fill="#DEDFE6"/>
<rect width="50" height="1" transform="matrix(-0.866025 -0.5 -0.5 0.866025 43.8013 385)" fill="#DEDFE6"/>
</svg>
