<svg width="44" height="386" viewBox="0 0 44 386" fill="none" xmlns="http://www.w3.org/2000/svg">
<rect y="25" width="50" height="1" transform="rotate(-30 0 25)" fill="#DEDFE6"/>
<rect y="35" width="50" height="1" transform="rotate(-30 0 35)" fill="#DEDFE6"/>
<rect y="45" width="50" height="1" transform="rotate(-30 0 45)" fill="#DEDFE6"/>
<rect y="55" width="50" height="1" transform="rotate(-30 0 55)" fill="#DEDFE6"/>
<rect y="65" width="50" height="1" transform="rotate(-30 0 65)" fill="#DEDFE6"/>
<rect y="75" width="50" height="1" transform="rotate(-30 0 75)" fill="#DEDFE6"/>
<rect y="85" width="50" height="1" transform="rotate(-30 0 85)" fill="#DEDFE6"/>
<rect y="95" width="50" height="1" transform="rotate(-30 0 95)" fill="#DEDFE6"/>
<rect y="105" width="50" height="1" transform="rotate(-30 0 105)" fill="#DEDFE6"/>
<rect y="115" width="50" height="1" transform="rotate(-30 0 115)" fill="#DEDFE6"/>
<rect y="125" width="50" height="1" transform="rotate(-30 0 125)" fill="#DEDFE6"/>
<rect y="135" width="50" height="1" transform="rotate(-30 0 135)" fill="#DEDFE6"/>
<rect y="145" width="50" height="1" transform="rotate(-30 0 145)" fill="#DEDFE6"/>
<rect y="155" width="50" height="1" transform="rotate(-30 0 155)" fill="#DEDFE6"/>
<rect y="165" width="50" height="1" transform="rotate(-30 0 165)" fill="#DEDFE6"/>
<rect y="175" width="50" height="1" transform="rotate(-30 0 175)" fill="#DEDFE6"/>
<rect y="185" width="50" height="1" transform="rotate(-30 0 185)" fill="#DEDFE6"/>
<rect y="195" width="50" height="1" transform="rotate(-30 0 195)" fill="#DEDFE6"/>
<rect y="205" width="50" height="1" transform="rotate(-30 0 205)" fill="#DEDFE6"/>
<rect y="215" width="50" height="1" transform="rotate(-30 0 215)" fill="#DEDFE6"/>
<rect y="225" width="50" height="1" transform="rotate(-30 0 225)" fill="#DEDFE6"/>
<rect y="235" width="50" height="1" transform="rotate(-30 0 235)" fill="#DEDFE6"/>
<rect y="245" width="50" height="1" transform="rotate(-30 0 245)" fill="#DEDFE6"/>
<rect y="255" width="50" height="1" transform="rotate(-30 0 255)" fill="#DEDFE6"/>
<rect y="265" width="50" height="1" transform="rotate(-30 0 265)" fill="#DEDFE6"/>
<rect y="275" width="50" height="1" transform="rotate(-30 0 275)" fill="#DEDFE6"/>
<rect y="285" width="50" height="1" transform="rotate(-30 0 285)" fill="#DEDFE6"/>
<rect y="295" width="50" height="1" transform="rotate(-30 0 295)" fill="#DEDFE6"/>
<rect y="305" width="50" height="1" transform="rotate(-30 0 305)" fill="#DEDFE6"/>
<rect y="315" width="50" height="1" transform="rotate(-30 0 315)" fill="#DEDFE6"/>
<rect y="325" width="50" height="1" transform="rotate(-30 0 325)" fill="#DEDFE6"/>
<rect y="335" width="50" height="1" transform="rotate(-30 0 335)" fill="#DEDFE6"/>
<rect y="345" width="50" height="1" transform="rotate(-30 0 345)" fill="#DEDFE6"/>
<rect y="355" width="50" height="1" transform="rotate(-30 0 355)" fill="#DEDFE6"/>
<rect y="365" width="50" height="1" transform="rotate(-30 0 365)" fill="#DEDFE6"/>
<rect y="375" width="50" height="1" transform="rotate(-30 0 375)" fill="#DEDFE6"/>
<rect y="385" width="50" height="1" transform="rotate(-30 0 385)" fill="#DEDFE6"/>
</svg>
